<svg height="512pt" viewBox="-66 0 512 512" width="512pt" xmlns="http://www.w3.org/2000/svg"><path d="m321.328125 82.101562h-263.539063c-5.8125 0-10.527343-4.714843-10.527343-10.527343v-61.046875c0-5.8125 4.714843-10.527344 10.527343-10.527344h263.539063c5.8125 0 10.527344 4.714844 10.527344 10.527344v61.046875c0 5.8125-4.710938 10.527343-10.527344 10.527343zm0 0" fill="#bdebff"/><path d="m98.769531 25.597656v-15.070312c0-5.8125 4.714844-10.527344 10.527344-10.527344h-51.507813c-5.8125 0-10.527343 4.714844-10.527343 10.527344v61.046875c0 5.8125 4.714843 10.523437 10.527343 10.523437h263.539063c5.8125 0 10.527344-4.710937 10.527344-10.523437v-45.976563zm0 0" fill="#92d8ff"/><path d="m321.328125 512h-263.539063c-5.8125 0-10.527343-4.714844-10.527343-10.527344v-61.046875c0-5.8125 4.714843-10.523437 10.527343-10.523437h263.539063c5.8125 0 10.527344 4.710937 10.527344 10.523437v61.046875c0 5.8125-4.710938 10.527344-10.527344 10.527344zm0 0" fill="#bdebff"/><path d="m331.855469 486.402344v-45.976563c0-5.8125-4.710938-10.527343-10.527344-10.527343h-263.539063c-5.8125 0-10.527343 4.714843-10.527343 10.527343v61.046875c0 5.8125 4.714843 10.527344 10.527343 10.527344h51.507813c-5.8125 0-10.527344-4.714844-10.527344-10.527344v-15.070312zm0 0" fill="#92d8ff"/><path d="m340.492188 41.050781h-301.867188c-7.339844 0-13.960938 4.410157-16.789062 11.1875l-19.863282 47.601563c-1.300781 3.117187-1.972656 6.464844-1.972656 9.84375v312.683594c0 4.917968 1.421875 9.730468 4.089844 13.863281l17.039062 26.394531c3.351563 5.191406 9.109375 8.324219 15.285156 8.324219h306.292969c6.175781 0 11.933594-3.132813 15.285157-8.324219l17.039062-26.394531c2.667969-4.132813 4.089844-8.945313 4.089844-13.863281v-312.683594c0-3.378906-.671875-6.726563-1.972656-9.84375l-19.863282-47.601563c-2.832031-6.777343-9.453125-11.1875-16.792968-11.1875zm0 0" fill="#92dd7a"/><g fill="#7ec66a"><path d="m82.941406 462.625-17.042968-26.394531c-2.667969-4.132813-4.085938-8.945313-4.085938-13.863281v-312.683594c0-3.378906.667969-6.726563 1.96875-9.84375l19.863281-47.601563c2.828125-6.777343 9.449219-11.1875 16.792969-11.1875h-61.8125c-7.339844 0-13.964844 4.410157-16.789062 11.1875l-19.863282 47.601563c-1.300781 3.117187-1.972656 6.464844-1.972656 9.84375v312.683594c0 4.917968 1.421875 9.730468 4.089844 13.863281l17.039062 26.394531c3.351563 5.191406 9.109375 8.324219 15.285156 8.324219h61.8125c-6.179687 0-11.9375-3.132813-15.285156-8.324219zm0 0"/><path d="m1.144531 429.898438c.6875 2.222656 1.667969 4.355468 2.941407 6.332031l17.042968 26.394531c3.351563 5.191406 9.105469 8.324219 15.285156 8.324219h306.289063c6.179687 0 11.9375-3.132813 15.285156-8.324219l17.042969-26.394531c1.277344-1.972657 2.253906-4.109375 2.941406-6.332031zm0 0"/><path d="m340.492188 41.050781h-301.867188c-7.339844 0-13.960938 4.410157-16.789062 11.1875l-19.863282 47.601563c-.636718 1.527344-1.121094 3.109375-1.453125 4.722656h378.078125c-.328125-1.613281-.8125-3.195312-1.449218-4.722656l-19.867188-47.601563c-2.828125-6.777343-9.449219-11.1875-16.789062-11.1875zm0 0"/></g><path d="m82.941406 462.625-17.042968-26.394531c-1.277344-1.972657-2.253907-4.109375-2.941407-6.332031h-61.8125c.6875 2.222656 1.667969 4.355468 2.941407 6.332031l17.042968 26.394531c3.351563 5.191406 9.105469 8.324219 15.285156 8.324219h61.8125c-6.179687 0-11.9375-3.132813-15.285156-8.324219zm0 0" fill="#5aaa4f"/><path d="m63.78125 99.839844 19.867188-47.601563c2.824218-6.777343 9.449218-11.1875 16.789062-11.1875h-61.8125c-7.339844 0-13.960938 4.410157-16.789062 11.1875l-19.863282 47.601563c-.636718 1.527344-1.121094 3.109375-1.453125 4.722656h61.8125c.328125-1.613281.8125-3.195312 1.449219-4.722656zm0 0" fill="#5aaa4f"/><path d="m0 422.367188c0 2.234374.308594 4.449218.878906 6.585937 132.113282-10.675781 246.042969-96.179687 378.238282-106.523437v-212.746094c0-1.398438-.121094-2.789063-.347657-4.160156-132.339843 10.492187-246.398437 96.210937-378.769531 106.570312zm0 0" fill="#ffde55"/><path d="m207.800781 270.300781c0 10.171875-8.246093 18.414063-18.414062 18.414063-10.171875 0-18.417969-8.242188-18.417969-18.414063s8.246094-18.417969 18.417969-18.417969c10.167969 0 18.414062 8.246094 18.414062 18.417969zm0 0" fill="#222223"/><path d="m.191406 425.355469c.015625.125.023438.253906.039063.378906.074219.53125.164062 1.058594.265625 1.582031.003906.007813.003906.015625.007812.027344.109375.539062.234375 1.078125.375 1.609375 20.710938-1.671875 40.976563-5.1875 60.933594-9.960937v-216.933594c-20.242188 4.839844-40.796875 8.390625-61.8125 10.035156v210.273438c0 .574218.0234375 1.148437.0625 1.71875.03125.425781.078125.847656.128906 1.269531zm0 0" fill="#ffcd00"/><path d="m254.996094 263.992188c-4.140625 0-7.5-3.355469-7.5-7.5v-11.695313c0-4.144531 3.359375-7.5 7.5-7.5 4.144531 0 7.5 3.355469 7.5 7.5v11.695313c0 4.144531-3.355469 7.5-7.5 7.5zm0 0" fill="#222223"/><path d="m123.773438 263.992188c-4.140626 0-7.5-3.355469-7.5-7.5v-11.695313c0-4.144531 3.359374-7.5 7.5-7.5 4.140624 0 7.5 3.355469 7.5 7.5v11.695313c0 4.144531-3.359376 7.5-7.5 7.5zm0 0" fill="#222223"/><path d="m260.847656 286.109375h-11.699218c-4.140626 0-7.5-3.359375-7.5-7.5 0-4.144531 3.359374-7.5 7.5-7.5h11.699218c4.140625 0 7.5 3.355469 7.5 7.5 0 4.140625-3.359375 7.5-7.5 7.5zm0 0" fill="#f46262"/><path d="m129.621094 286.109375h-11.695313c-4.144531 0-7.5-3.359375-7.5-7.5 0-4.144531 3.355469-7.5 7.5-7.5h11.695313c4.144531 0 7.5 3.355469 7.5 7.5 0 4.140625-3.355469 7.5-7.5 7.5zm0 0" fill="#f46262"/></svg>