<svg height="512" viewBox="0 0 51 58" width="512" xmlns="http://www.w3.org/2000/svg"><g id="025---Mixer" fill="none"><path id="Shape" d="m17 14c-1.1955523 1.5412469-2.2026891 3.2198083-3 5l-4.46 1-4.54-1c-.79731088-1.7801917-1.80444771-3.4587531-3-5l7.54-1z" fill="#95a5a5"/><path id="Shape" d="m33 26c-.5522847 0-1-.4477153-1-1v-4c0-.5522847.4477153-1 1-1s1 .4477153 1 1v4c0 .5522847-.4477153 1-1 1z" fill="#bdc3c7"/><path id="Shape" d="m33 22c-1.1045695 0-2-.8954305-2-2v-3h4v3c0 1.1045695-.8954305 2-2 2z" fill="#7f8c8d"/><path id="Shape" d="m18.75 36.65c.8021843 2.4295429 2.2097272 4.6148479 4.09 6.35 9.51 8.82 25.16 2.1 25.16-11v-5c0-1.1045695-.8954305-2-2-2h-26c-1.1045695 0-2 .8954305-2 2 0 4.14-.15 2 .75 9.65z" fill="#90bae1"/><path id="Shape" d="m14 25c0 6 7 6 10 6h11c1.1045695 0 2 .8954305 2 2s-.8954305 2-2 2h-3c-2 0-13 0-18 4l-1.5-6.44z" fill="#e57e25"/><path id="Shape" d="m21.34 36c-.6267479.9709978-1.1464472 2.0070434-1.55 3.09-.4040355-.7756035-.7386729-1.585426-1-2.42.8-.28 1.67-.51 2.55-.67z" fill="#b0d3f0"/><path id="Shape" d="m45.48 25c-4.3.26-13 1.36-19.4 6-2.71 0-5.61.13-8.08-.71v-3.29c0-1.1045695.8954305-2 2-2z" fill="#b0d3f0"/><path id="Shape" d="m28 12.5h10v3.5c0 1.1045695-.8954305 2-2 2h-6c-1.1045695 0-2-.8954305-2-2z" fill="#95a5a5"/><path id="Shape" d="m14 19v29l-4.5 1.5-5.63-1.5c1.13-3 2.13-9 2.13-16 0-3-1-13-1-13z" fill="#f29c1f"/><path id="Shape" d="m40 8v4c0 1.1045695-.8954305 2-2 2h-36c-1.1045695 0-2-.8954305-2-2v-4z" fill="#c03a2b"/><g fill="#e64c3c"><path id="Shape" d="m40 6v3h-40v-3c0-3.3137085 2.6862915-6 6-6h28c3.3137085 0 6 2.6862915 6 6z"/><path id="Shape" d="m51 55c0 1.6568542-1.3431458 3-3 3h-45.8c-.66959193.0013957-1.2954576-.3323841-1.66734495-.8892101-.37188734-.5568259-.44044996-1.2628117-.18265505-1.8807899.75181409-1.7649845 1.26953881-3.620725 1.54-5.52.14503434-.9900549.99943418-1.7205667 2-1.71h10.11c.6064878.0238515 1.1693296.3218266 1.53.81 1.5202094 2.0394891 3.9265255 3.2259107 6.47 3.19h26c1.6568542 0 3 1.3431458 3 3z"/></g></g></svg>